<svg width="90" height="90" viewBox="0 0 90 90" fill="none" xmlns="http://www.w3.org/2000/svg">
<path d="M45 24.2308C40.8922 24.2308 36.8767 25.4489 33.4612 27.731C30.0458 30.0132 27.3837 33.2569 25.8117 37.052C24.2398 40.847 23.8285 45.023 24.6298 49.0519C25.4312 53.0807 27.4093 56.7814 30.3139 59.6861C33.2186 62.5907 36.9193 64.5688 40.9481 65.3702C44.977 66.1715 49.153 65.7602 52.948 64.1883C56.7431 62.6163 59.9868 59.9543 62.269 56.5388C64.5511 53.1233 65.7692 49.1078 65.7692 45C65.7635 39.4934 63.5735 34.214 59.6797 30.3203C55.786 26.4265 50.5066 24.2365 45 24.2308ZM45 58.8462C42.2615 58.8462 39.5845 58.0341 37.3075 56.5127C35.0305 54.9912 33.2558 52.8287 32.2078 50.2987C31.1598 47.7686 30.8856 44.9846 31.4199 42.2988C31.9542 39.6129 33.2729 37.1457 35.2093 35.2093C37.1457 33.2729 39.6129 31.9542 42.2988 31.4199C44.9846 30.8856 47.7686 31.1598 50.2987 32.2078C52.8287 33.2558 54.9912 35.0305 56.5127 37.3075C58.0341 39.5845 58.8462 42.2615 58.8462 45C58.8462 48.6722 57.3874 52.194 54.7907 54.7907C52.194 57.3874 48.6722 58.8462 45 58.8462ZM65.7692 0H24.2308C17.8065 0.00687213 11.6473 2.56196 7.10462 7.10462C2.56196 11.6473 0.00687213 17.8065 0 24.2308V65.7692C0.00687213 72.1935 2.56196 78.3527 7.10462 82.8954C11.6473 87.438 17.8065 89.9931 24.2308 90H65.7692C72.1935 89.9931 78.3527 87.438 82.8954 82.8954C87.438 78.3527 89.9931 72.1935 90 65.7692V24.2308C89.9931 17.8065 87.438 11.6473 82.8954 7.10462C78.3527 2.56196 72.1935 0.00687213 65.7692 0ZM83.0769 65.7692C83.0769 70.3595 81.2534 74.7618 78.0076 78.0076C74.7618 81.2534 70.3595 83.0769 65.7692 83.0769H24.2308C19.6405 83.0769 15.2382 81.2534 11.9924 78.0076C8.74656 74.7618 6.92308 70.3595 6.92308 65.7692V24.2308C6.92308 19.6405 8.74656 15.2382 11.9924 11.9924C15.2382 8.74656 19.6405 6.92308 24.2308 6.92308H65.7692C70.3595 6.92308 74.7618 8.74656 78.0076 11.9924C81.2534 15.2382 83.0769 19.6405 83.0769 24.2308V65.7692ZM72.6923 22.5C72.6923 23.5269 72.3878 24.5308 71.8172 25.3847C71.2467 26.2386 70.4358 26.9041 69.487 27.2971C68.5382 27.6901 67.4942 27.7929 66.487 27.5925C65.4798 27.3922 64.5546 26.8977 63.8285 26.1715C63.1023 25.4454 62.6078 24.5202 62.4075 23.513C62.2071 22.5058 62.3099 21.4618 62.7029 20.513C63.0959 19.5642 63.7614 18.7533 64.6153 18.1828C65.4692 17.6122 66.4731 17.3077 67.5 17.3077C68.8771 17.3077 70.1978 17.8547 71.1715 18.8285C72.1453 19.8022 72.6923 21.1229 72.6923 22.5Z" fill="black"/>
</svg>
