<svg width="30" height="45" viewBox="0 0 30 45" fill="none" xmlns="http://www.w3.org/2000/svg">
<path d="M11.1468 30.7895C11.1468 27.5921 11.4798 25.2924 12.1459 23.8903C12.8119 22.4882 14.222 20.9589 16.3761 19.3026C18.2569 17.8816 19.6908 16.6476 20.678 15.6008C21.6651 14.5539 22.1578 13.3603 22.156 12.0197C22.156 10.4013 21.5257 9.05921 20.2651 7.99342C19.0046 6.92763 17.2495 6.39474 15 6.39474C12.6605 6.39474 10.8826 7.00658 9.66605 8.23026C8.44954 9.45395 7.59082 10.6974 7.08991 11.9605L0 9.35526C0.963303 6.82895 2.72936 4.63816 5.29816 2.78289C7.86697 0.927632 11.1009 0 15 0C19.8165 0 23.5211 1.155 26.1138 3.465C28.7064 5.775 30.0018 8.54763 30 11.7829C30 13.7566 29.5073 15.4445 28.522 16.8466C27.5367 18.2487 25.9881 19.8371 23.8761 21.6118C21.6284 23.4671 20.2642 24.8787 19.7835 25.8466C19.3027 26.8145 19.0615 28.4621 19.0596 30.7895H11.1468ZM15 45C13.4862 45 12.1908 44.5358 11.1138 43.6074C10.0367 42.6789 9.49725 41.5642 9.49541 40.2632C9.49541 38.9605 10.0349 37.845 11.1138 36.9166C12.1927 35.9882 13.4881 35.5247 15 35.5263C16.5138 35.5263 17.8101 35.9905 18.889 36.9189C19.9679 37.8474 20.5064 38.9621 20.5046 40.2632C20.5046 41.5658 19.9651 42.6813 18.8862 43.6097C17.8073 44.5382 16.5119 45.0016 15 45Z" fill="black"/>
</svg>
