<svg width="84" height="60" viewBox="0 0 84 60" fill="none" xmlns="http://www.w3.org/2000/svg">
<path d="M33.6667 42.4999L55.2917 29.9999L33.6667 17.4999V42.4999ZM81.8334 9.87492C82.375 11.8333 82.75 14.4583 83 17.7916C83.2917 21.1249 83.4167 23.9999 83.4167 26.4999L83.6667 29.9999C83.6667 39.1249 83 45.8333 81.8334 50.1249C80.7917 53.8749 78.375 56.2916 74.625 57.3333C72.6667 57.8749 69.0834 58.2499 63.5834 58.4999C58.1667 58.7916 53.2084 58.9166 48.625 58.9166L42 59.1666C24.5417 59.1666 13.6667 58.4999 9.37504 57.3333C5.62504 56.2916 3.20837 53.8749 2.16671 50.1249C1.62504 48.1666 1.25004 45.5416 1.00004 42.2083C0.708374 38.8749 0.583374 35.9999 0.583374 33.4999L0.333374 29.9999C0.333374 20.8749 1.00004 14.1666 2.16671 9.87492C3.20837 6.12492 5.62504 3.70825 9.37504 2.66659C11.3334 2.12492 14.9167 1.74992 20.4167 1.49992C25.8334 1.20825 30.7917 1.08325 35.375 1.08325L42 0.833252C59.4584 0.833252 70.3334 1.49992 74.625 2.66659C78.375 3.70825 80.7917 6.12492 81.8334 9.87492Z" fill="black"/>
</svg>
