<svg width="84" height="60" viewBox="0 0 84 60" fill="none" xmlns="http://www.w3.org/2000/svg">
<path d="M33.6668 42.4999L55.2918 29.9999L33.6668 17.4999V42.4999ZM81.8335 9.87492C82.3752 11.8333 82.7502 14.4583 83.0002 17.7916C83.2918 21.1249 83.4168 23.9999 83.4168 26.4999L83.6668 29.9999C83.6668 39.1249 83.0002 45.8333 81.8335 50.1249C80.7918 53.8749 78.3752 56.2916 74.6252 57.3333C72.6668 57.8749 69.0835 58.2499 63.5835 58.4999C58.1668 58.7916 53.2085 58.9166 48.6252 58.9166L42.0002 59.1666C24.5418 59.1666 13.6668 58.4999 9.37516 57.3333C5.62516 56.2916 3.2085 53.8749 2.16683 50.1249C1.62516 48.1666 1.25016 45.5416 1.00016 42.2083C0.708496 38.8749 0.583496 35.9999 0.583496 33.4999L0.333496 29.9999C0.333496 20.8749 1.00016 14.1666 2.16683 9.87492C3.2085 6.12492 5.62516 3.70825 9.37516 2.66659C11.3335 2.12492 14.9168 1.74992 20.4168 1.49992C25.8335 1.20825 30.7918 1.08325 35.3752 1.08325L42.0002 0.833252C59.4585 0.833252 70.3335 1.49992 74.6252 2.66659C78.3752 3.70825 80.7918 6.12492 81.8335 9.87492Z" fill="white"/>
</svg>
